Coordinates
version=1
nRows=14
nColumns=40
inDegrees=yes

Units are S.I. units (second, meters, Newtons, ...)
Angles are in degrees.

endheader
time	pelvis_tilt	pelvis_list	pelvis_rotation	pelvis_tx	pelvis_ty	pelvis_tz	hip_flexion_r	hip_adduction_r	hip_rotation_r	knee_angle_r	knee_angle_r_beta	ankle_angle_r	subtalar_angle_r	mtp_angle_r	hip_flexion_l	hip_adduction_l	hip_rotation_l	knee_angle_l	knee_angle_l_beta	ankle_angle_l	subtalar_angle_l	mtp_angle_l	lumbar_extension	lumbar_bending	lumbar_rotation	arm_flex_r	arm_add_r	arm_rot_r	elbow_flex_r	pro_sup_r	wrist_flex_r	wrist_dev_r	arm_flex_l	arm_add_l	arm_rot_l	elbow_flex_l	pro_sup_l	wrist_flex_l	wrist_dev_l
      9.79750000	     -1.72726432	     -2.44199022	     -2.38045005	      1.01660352	      0.91796524	      0.43983601	     22.04480505	    -10.10235053	     -8.17280194	     66.31090731	     66.31090731	      5.91606940	    -19.59108561	     19.28100623	     12.31005479	      0.18516812	     -4.29421354	     29.84497432	     29.84497432	     22.18618087	    -18.27518416	      9.72168977	    -10.19253498	      5.53482952	      2.43793219	     12.16163849	    -13.42409756	    -17.36375225	     27.89163148	     46.85362270	      0.00000000	      0.00000000	     15.83708983	    -14.94731032	      3.89175335	     52.13817756	     46.11256412	      0.00000000	      0.00000000
      9.81671429	     -1.69465759	     -2.55536316	     -2.87620756	      1.01614412	      0.91805534	      0.43992953	     23.19551190	     -9.58525646	     -7.98858372	     66.20199209	     66.20199209	      6.52456170	    -19.58442776	     19.27862576	     11.71234149	      0.04593925	     -4.69138614	     29.60331534	     29.60331534	     22.43879424	    -18.25464946	      9.74297144	    -10.29477480	      5.86597164	      1.80411525	      9.57666660	    -12.85777944	    -17.37159047	     26.68327536	     46.88097629	      0.00000000	      0.00000000	     16.77730609	    -15.58423050	      3.49601781	     52.68757439	     46.16461648	      0.00000000	      0.00000000
      9.83592857	     -1.75873497	     -2.69146295	     -3.47221231	      1.01554183	      0.91839513	      0.44058497	     24.35277911	     -8.87584295	     -7.71802345	     65.43397844	     65.43397844	      7.49514464	    -19.55875899	     19.58670207	     11.11851860	     -0.18497193	     -5.26345815	     29.17787044	     29.17787044	     22.63182543	    -18.09854527	      9.66957939	    -10.45314906	      6.13434374	      2.35724087	      6.58589589	    -12.82502441	    -17.36585338	     24.81962555	     46.93495953	      0.00000000	      0.00000000	     18.06879676	    -15.34433455	      2.72682194	     54.43216740	     46.27439585	      0.00000000	      0.00000000
      9.85514286	     -1.96778685	     -2.86183392	     -4.00363635	      1.01482371	      0.91890578	      0.44166637	     25.44095755	     -8.07978426	     -7.58600323	     63.89662791	     63.89662791	      8.48499205	    -19.50867765	     19.34015836	     10.64627204	     -0.45715991	     -5.71182484	     28.66334710	     28.66334710	     22.72972130	    -18.00391274	      9.68898752	    -10.34017550	      6.46199757	      1.70179870	      4.19548956	    -12.36607413	    -17.39116363	     23.86786921	     46.95490660	      0.00000000	      0.00000000	     19.01429124	    -16.13175194	      2.24617578	     55.06425070	     46.33172608	      0.00000000	      0.00000000
      9.87435714	     -2.05830875	     -3.14991334	     -4.62047125	      1.01417177	      0.92001817	      0.44333111	     26.13590647	     -7.09225030	     -7.49595815	     61.55153801	     61.55153801	      9.42143683	    -19.44004802	     18.74602616	      9.83417735	     -0.89521588	     -6.32538239	     27.80177001	     27.80177001	     22.66743999	    -17.77236896	      9.46960949	    -10.53997652	      6.78194407	      2.33977531	      1.25620333	    -12.31799204	    -17.42356929	     22.64867749	     46.98597660	      0.00000000	      0.00000000	     20.18899828	    -15.86428538	      1.24146806	     57.31809878	     46.46116539	      0.00000000	      0.00000000
      9.89357143	     -2.36082971	     -3.39259776	     -5.23004435	      1.01341050	      0.92099407	      0.44531631	     26.84125525	     -6.13577551	     -7.43344683	     58.50700294	     58.50700294	      9.89473852	    -19.31807386	     16.81044023	      9.20855312	     -1.31875021	     -6.99750038	     26.82779252	     26.82779252	     22.33429423	    -17.52314149	      8.65808639	    -10.48288902	      7.08151484	      2.16624574	     -1.40025532	    -12.03883777	    -17.57077214	     22.47978616	     46.98320975	      0.00000000	      0.00000000	     20.71115038	    -16.10998012	     -0.53392574	     59.97980217	     46.65961090	      0.00000000	      0.00000000
      9.91278571	     -2.66106426	     -3.69990333	     -5.82022050	      1.01260675	      0.92214601	      0.44768453	     27.21073383	     -5.14089833	     -7.49656176	     54.65675731	     54.65675731	      9.55490252	    -19.16911074	     12.82723902	      8.51695230	     -1.80855619	     -7.60834837	     25.74371719	     25.74371719	     21.78199389	    -17.36211676	      7.57650929	    -10.47621914	      7.41647233	      1.62858408	     -3.80040909	    -11.81647974	    -17.63129661	     23.01045514	     46.94642505	      0.00000000	      0.00000000	     21.02384172	    -16.62383757	     -2.60398493	     62.59065221	     46.88843171	      0.00000000	      0.00000000
      9.93200000	     -2.98346411	     -3.98052173	     -6.45406355	      1.01182952	      0.92330929	      0.45043154	     27.37132996	     -4.12822111	     -7.45464630	     50.23285437	     50.23285437	      8.86246786	    -18.88850954	      8.53998009	      7.79132666	     -2.27290036	     -8.25375608	     24.58687373	     24.58687373	     21.41385999	    -17.11083574	      7.01648153	    -10.43059297	      7.70588196	      1.53879620	     -6.18201943	    -11.76149656	    -17.51350632	     23.27864640	     46.90678291	      0.00000000	      0.00000000	     21.83302068	    -17.05356201	     -3.71815967	     64.63841629	     47.03899600	      0.00000000	      0.00000000
      9.95121429	     -3.29968859	     -4.24137921	     -7.09626432	      1.01109918	      0.92431328	      0.45355326	     27.37897547	     -3.09399521	     -7.27379400	     45.53202074	     45.53202074	      8.37507334	    -18.23654299	      5.70378789	      7.05387800	     -2.72957736	     -8.95658729	     23.45578614	     23.45578614	     21.17710384	    -16.77321672	      6.74351417	    -10.42083297	      7.92798858	      1.74517583	     -8.47067674	    -11.61935936	    -17.54434458	     23.41538156	     46.88226349	      0.00000000	      0.00000000	     22.88436910	    -17.33886074	     -4.54326318	     66.77712439	     47.15496439	      0.00000000	      0.00000000
      9.97042857	     -3.73915770	     -4.54142122	     -7.67875662	      1.01034962	      0.92495166	      0.45694235	     27.37455788	     -2.04561736	     -7.10210372	     40.74286683	     40.74286683	      8.52995677	    -16.67092618	      5.43487178	      6.53244617	     -3.24200010	     -9.47934476	     22.50407509	     22.50407509	     21.10597727	    -16.52052581	      6.80299025	    -10.19155807	      8.24491050	      1.48774154	    -10.04558329	    -11.59824256	    -17.61375663	     23.17395783	     46.88370611	      0.00000000	      0.00000000	     23.95959408	    -18.09632833	     -5.00716909	     67.71628335	     47.21135511	      0.00000000	      0.00000000
      9.98964286	     -3.89762060	     -4.70264848	     -8.29385902	      1.01001193	      0.92549187	      0.46046835	     26.63827930	     -1.31355645	     -7.15039394	     35.27090477	     35.27090477	      6.20072124	    -15.13138033	     -1.60315775	      5.55149779	     -3.55701544	    -10.23250440	     21.27767230	     21.27767230	     20.53548112	    -16.28361371	      5.43837183	    -10.39925802	      8.35050460	      1.42844497	    -12.24648440	    -11.55650214	    -17.80688952	     25.26044503	     46.77682784	      0.00000000	      0.00000000	     24.56534202	    -18.57105398	     -6.45072079	     70.67165245	     47.40241667	      0.00000000	      0.00000000
     10.00885714	     -4.13866825	     -4.83145141	     -8.86449967	      1.00974859	      0.92554555	      0.46426075	     26.21634969	     -0.68126700	     -7.27487373	     30.70638962	     30.70638962	      6.20793797	    -11.73752033	     -1.47861610	      4.78747370	     -3.85585124	    -10.85962644	     20.33824679	     20.33824679	     20.54989159	    -15.93432822	      5.37717475	    -10.42268703	      8.42545277	      1.59624640	    -13.54308507	    -11.52357512	    -17.84474506	     25.11099640	     46.77259262	      0.00000000	      0.00000000	     25.84937345	    -19.02784654	     -6.82039082	     72.06373245	     47.46694101	      0.00000000	      0.00000000
     10.02807143	     -4.36923361	     -4.92184738	     -9.36290210	      1.00982734	      0.92516931	      0.46818936	     25.73683299	     -0.10993670	     -7.41388434	     26.51437214	     26.51437214	      6.06488838	     -8.37354955	     -1.00203231	      4.06265632	     -4.10860750	    -11.40002420	     19.52951750	     19.52951750	     20.62308609	    -15.68405385	      5.20373389	    -10.35034114	      8.50015029	      1.65422557	    -14.64601087	    -11.59792429	    -17.95465447	     25.16986348	     46.76725317	      0.00000000	      0.00000000	     26.99898526	    -19.54900872	     -7.21383936	     73.36898313	     47.52863539	      0.00000000	      0.00000000
     10.04728571	     -4.45856663	     -4.81007691	     -9.82892754	      1.01022865	      0.92442429	      0.47216672	     25.38930678	      0.00557004	     -8.06052280	     23.36364157	     23.36364157	      6.14262965	     -4.02945996	     -0.26458936	      3.15257409	     -4.12115161	    -12.08209975	     18.62892819	     18.62892819	     20.57197408	    -15.22928155	      4.48924971	    -10.46363683	      8.32738790	      1.74860954	    -15.73937453	    -11.55319602	    -18.20627129	     26.05407933	     46.73278840	      0.00000000	      0.00000000	     27.98165583	    -19.99206703	     -7.82022877	     75.42900289	     47.62243715	      0.00000000	      0.00000000
